<?xml version="1.0" standalone="no"?>
<!DOCTYPE svg PUBLIC "-//W3C//DTD SVG 20010904//EN"
 "http://www.w3.org/TR/2001/REC-SVG-20010904/DTD/svg10.dtd">
<svg version="1.0" xmlns="http://www.w3.org/2000/svg"
 width="1080.000000pt" height="1080.000000pt" viewBox="0 0 1080.000000 1080.000000"
 preserveAspectRatio="xMidYMid meet">
<metadata>
Created by potrace 1.11, written by Peter Selinger 2001-2013
</metadata>
<g transform="translate(0.000000,1080.000000) scale(0.100000,-0.100000)"
fill="#000000" stroke="none">
<path d="M7581 6110 c-181 -38 -303 -116 -358 -229 -25 -49 -28 -67 -28 -151
0 -81 4 -103 25 -145 54 -111 162 -182 425 -278 169 -62 228 -92 269 -137 41
-46 53 -96 37 -151 -25 -82 -125 -124 -283 -117 -118 5 -155 18 -275 98 -48
32 -85 50 -104 50 -72 0 -139 -68 -139 -140 0 -38 5 -48 44 -85 55 -53 152
-99 264 -127 117 -29 353 -31 457 -4 157 40 272 122 325 231 22 44 25 63 25
160 0 104 -2 114 -32 176 -47 94 -110 150 -246 214 -62 29 -165 71 -229 94
-146 50 -188 72 -222 111 -49 58 -43 115 16 165 79 66 279 74 442 16 112 -39
145 -40 184 -3 38 36 60 102 44 136 -18 40 -75 75 -158 97 -63 17 -115 22
-259 25 -99 2 -200 -1 -224 -6z"/>
<path d="M2562 6090 l-32 -20 2 -666 3 -667 28 -21 c28 -20 38 -21 355 -21
356 0 388 4 512 63 77 36 161 122 191 197 24 60 24 62 24 440 0 340 -2 386
-18 435 -39 118 -129 199 -277 249 -74 25 -81 26 -415 29 -326 2 -341 2 -373
-18z m639 -215 c62 -22 107 -69 125 -132 13 -43 15 -108 12 -365 -3 -298 -4
-315 -24 -353 -50 -92 -92 -107 -306 -113 l-168 -4 0 491 0 491 159 0 c117 0
170 -4 202 -15z"/>
<path d="M3970 6093 l-35 -18 0 -669 0 -669 26 -19 c54 -41 214 -33 260 13 18
18 19 38 19 672 l0 654 -26 24 c-23 21 -36 24 -117 27 -73 2 -99 -1 -127 -15z"/>
<path d="M4552 6090 l-22 -21 0 -663 c0 -619 1 -664 18 -678 59 -51 220 -50
273 3 18 18 19 35 19 284 l0 265 98 0 98 0 176 -278 c97 -152 186 -286 197
-296 12 -11 41 -21 69 -24 88 -8 202 61 202 124 0 15 -63 118 -160 264 -88
132 -160 242 -160 245 0 3 6 5 13 5 6 0 40 13 74 30 86 40 154 106 189 183 26
56 29 73 29 167 0 144 -18 195 -99 276 -45 45 -77 67 -121 83 -122 46 -170 51
-531 51 -329 0 -341 -1 -362 -20z m705 -227 c79 -43 115 -132 94 -228 -15 -65
-39 -98 -94 -128 -38 -20 -58 -22 -229 -25 l-188 -4 0 207 0 207 188 -4 c171
-3 191 -5 229 -25z"/>
<path d="M5922 6090 l-32 -20 2 -666 3 -667 28 -21 c27 -20 41 -21 357 -24
261 -2 342 0 400 12 242 51 341 188 328 454 -4 84 -9 106 -34 152 -32 58 -82
101 -156 133 l-48 20 38 19 c56 27 102 75 131 138 21 47 25 69 26 151 0 87 -3
101 -30 155 -37 72 -104 125 -195 156 -61 21 -85 23 -425 25 -347 3 -361 3
-393 -17z m644 -221 c58 -28 84 -72 84 -141 0 -65 -26 -111 -80 -142 -32 -19
-52 -21 -205 -21 l-170 0 -3 163 -2 162 167 0 c148 0 171 -2 209 -21z m43
-539 c65 -37 86 -83 86 -190 0 -110 -26 -162 -100 -199 -47 -25 -56 -26 -225
-26 l-175 0 -3 223 -2 224 187 -4 c179 -3 190 -4 232 -28z"/>
</g>
</svg>
